<?xml version="1.0" encoding="utf-8"?>
<!-- Generator: Adobe Illustrator 23.0.3, SVG Export Plug-In . SVG Version: 6.00 Build 0)  -->
<svg version="1.1" id="Layer_1" xmlns="http://www.w3.org/2000/svg" xmlns:xlink="http://www.w3.org/1999/xlink" x="0px" y="0px"
	 viewBox="0 0 45.4 45.4" style="enable-background:new 0 0 45.4 45.4;" xml:space="preserve">
<style type="text/css">
	.st0{fill:#F4D35E;}
	.st1{fill:url(#path-2_1_);}
	.st2{fill:url(#Path_1_);}
</style>
<title>02d</title>
<desc>Created with Sketch.</desc>
<g id="Page-1">
	<g id="Mobile" transform="translate(-262.000000, -56.000000)">
		<g transform="translate(261.000000, 56.000000)">
			<circle id="Oval" class="st0" cx="32.2" cy="16.3" r="9.9"/>
			
				<linearGradient id="path-2_1_" gradientUnits="userSpaceOnUse" x1="-276.9642" y1="23.413" x2="-277.9642" y2="23.9241" gradientTransform="matrix(39.5188 0 0 28.252 10989.1689 -643.1219)">
				<stop  offset="0" style="stop-color:#F5F6F8"/>
				<stop  offset="1" style="stop-color:#DFE3E8"/>
			</linearGradient>
			<path id="path-2" class="st1" d="M43.2,28.7c0,5.5-4.4,9.9-9.9,10H13.6c-4,0-7.6-2.4-9.1-6c-1.6-3.7-0.7-8,2.1-10.8
				c1.2-1.1,2.6-2,4.1-2.5c0.5-5.1,4.7-8.9,9.8-9c4.9-0.1,9,3.4,9.8,8.2h3.1C38.8,18.8,43.2,23.2,43.2,28.7z"/>
			
				<linearGradient id="Path_1_" gradientUnits="userSpaceOnUse" x1="-273.2561" y1="34.5258" x2="-272.6504" y2="34.093" gradientTransform="matrix(24.4201 0 0 17.4505 6683.9775 -567.3192)">
				<stop  offset="1.000000e-02" style="stop-color:#FFFFFF;stop-opacity:0.7"/>
				<stop  offset="1" style="stop-color:#FFFFFF"/>
			</linearGradient>
			<path id="Path" class="st2" d="M30.9,32.7c0,3.4-2.7,6.2-6.1,6.2H12.6c-1.6,0-3.2-0.6-4.3-1.8c-1.1-1.1-1.8-2.7-1.8-4.3
				c0-2.7,1.8-5,4.3-5.8c0.3-3.1,2.9-5.5,6.1-5.6c3,0,5.6,2.1,6,5.1h1.8C28.1,26.6,30.9,29.3,30.9,32.7z"/>
		</g>
	</g>
</g>
</svg>
