<?xml version="1.0" encoding="utf-8"?>
<!-- Generator: Adobe Illustrator 23.0.3, SVG Export Plug-In . SVG Version: 6.00 Build 0)  -->
<svg version="1.1" id="Layer_1" xmlns="http://www.w3.org/2000/svg" xmlns:xlink="http://www.w3.org/1999/xlink" x="0px" y="0px"
	 viewBox="0 0 45.4 45.4" style="enable-background:new 0 0 45.4 45.4;" xml:space="preserve">
<style type="text/css">
	.st0{fill:url(#path-2_1_);}
	.st1{fill:#6D737B;}
</style>
<title>04d</title>
<desc>Created with Sketch.</desc>
<g id="Page-1">
	<g id="Mobile" transform="translate(-294.000000, -7.000000)">
		<g transform="translate(294.000000, 6.000000)">
			
				<linearGradient id="path-2_1_" gradientUnits="userSpaceOnUse" x1="-278.9535" y1="25.5823" x2="-279.9535" y2="26.094" gradientTransform="matrix(39.4653 0 0 28.2314 11051.8916 -704.8548)">
				<stop  offset="0" style="stop-color:#F5F6F8"/>
				<stop  offset="1" style="stop-color:#DFE3E8"/>
			</linearGradient>
			<path id="path-2" class="st0" d="M42.2,27.7c0,5.5-4.4,9.9-9.9,10H12.6c-4.9,0-9-3.6-9.7-8.4S5,19.9,9.7,18.5
				c0.5-5.1,4.7-8.9,9.8-9c4.9-0.1,9,3.4,9.8,8.2h3.1C37.8,17.8,42.2,22.2,42.2,27.7z"/>
			<path id="Path" class="st1" d="M30.7,31.7c0,3.4-2.7,6.1-6.1,6.2H12.3c-1.6,0-3.2-0.6-4.3-1.8s-1.8-2.7-1.8-4.3
				c0-2.7,1.8-5,4.3-5.8c0.3-3.1,2.9-5.5,6.1-5.5c3,0,5.6,2.1,6,5.1h1.9C27.9,25.6,30.7,28.3,30.7,31.7z"/>
		</g>
	</g>
</g>
</svg>
