<?xml version="1.0" encoding="utf-8"?>
<!-- Generator: Adobe Illustrator 23.0.3, SVG Export Plug-In . SVG Version: 6.00 Build 0)  -->
<svg version="1.1" id="Layer_1" xmlns="http://www.w3.org/2000/svg" xmlns:xlink="http://www.w3.org/1999/xlink" x="0px" y="0px"
	 viewBox="0 0 45.4 45.4" style="enable-background:new 0 0 45.4 45.4;" xml:space="preserve">
<style type="text/css">
	.st0{fill:url(#path-2_1_);}
	.st1{fill:url(#Path_1_);}
	.st2{fill:url(#path-5_1_);}
	.st3{fill:url(#path-7_1_);}
</style>
<title>50d</title>
<desc>Created with Sketch.</desc>
<g id="Page-1">
	<g id="Mobile" transform="translate(-277.000000, -2.000000)">
		<g transform="translate(277.000000, 1.000000)">
			
				<linearGradient id="path-2_1_" gradientUnits="userSpaceOnUse" x1="-278.9537" y1="20.2441" x2="-279.9537" y2="20.7559" gradientTransform="matrix(39.4653 0 0 28.2314 11051.8916 -558.6976)">
				<stop  offset="0" style="stop-color:#F5F6F8"/>
				<stop  offset="1" style="stop-color:#DFE3E8"/>
			</linearGradient>
			<path id="path-2" class="st0" d="M42.2,23.2c0,5.5-4.4,9.9-9.9,10H12.6c-4.9,0-9-3.6-9.7-8.4S5,15.4,9.7,13.9
				c0.5-5.1,4.7-8.9,9.8-9c4.9-0.1,9,3.4,9.8,8.2h3.1C37.8,13.3,42.2,17.7,42.2,23.2z"/>
			
				<linearGradient id="Path_1_" gradientUnits="userSpaceOnUse" x1="-275.2553" y1="31.2786" x2="-274.6496" y2="30.8463" gradientTransform="matrix(24.4203 0 0 17.4207 6731.8696 -515.2496)">
				<stop  offset="1.000000e-02" style="stop-color:#FFFFFF;stop-opacity:0.7"/>
				<stop  offset="1" style="stop-color:#FFFFFF"/>
			</linearGradient>
			<path id="Path" class="st1" d="M29.9,27.2c0,3.4-2.7,6.1-6.1,6.2H11.6c-1.6,0-3.2-0.6-4.3-1.8c-1.1-1.1-1.8-2.7-1.8-4.3
				c0-1.6,0.6-3.2,1.8-4.3c0.7-0.7,1.6-1.2,2.5-1.5c0.3-3.1,2.9-5.5,6.1-5.5c3,0,5.6,2.1,6,5.1h1.8C27.1,21.1,29.9,23.8,29.9,27.2
				L29.9,27.2z"/>
			
				<linearGradient id="path-5_1_" gradientUnits="userSpaceOnUse" x1="-268.0249" y1="183.3424" x2="-269.0249" y2="183.3707" gradientTransform="matrix(15.85 0 0 2.6621 4275.9521 -450.9515)">
				<stop  offset="0" style="stop-color:#F5F6F8"/>
				<stop  offset="1" style="stop-color:#DFE3E8"/>
			</linearGradient>
			<path id="path-5" class="st2" d="M11.9,37.4h0.8c0.4,0,1.1,0,1.8-0.1s1.6-0.1,2.5-0.3c0.4-0.1,0.9-0.2,1.4-0.3
				c0.4-0.1,0.9-0.2,1.3-0.4l0.8-0.2c0.3-0.1,0.6-0.1,0.9-0.2c0.5-0.1,1.1-0.1,1.6,0c0.9,0.1,1.8,0.4,2.7,0.8c0.6,0.3,1.2,0.6,1.7,1
				c0.2,0.1,0.4,0.3,0.6,0.5l-0.7-0.1c-0.4-0.1-1.1-0.2-1.8-0.3c-0.8-0.1-1.6-0.2-2.5-0.2c-0.2,0-0.4,0-0.7,0s-0.4,0.1-0.7,0.1
				s-0.4,0.1-0.6,0.1L20.3,38c-0.3,0.1-0.5,0.2-0.8,0.2s-0.5,0.1-0.8,0.2c-0.5,0.1-1,0.1-1.6,0.1c-0.9,0-1.8-0.1-2.7-0.3
				c-0.6-0.1-1.2-0.3-1.8-0.6C12.4,37.7,12.2,37.6,11.9,37.4z"/>
			
				<linearGradient id="path-7_1_" gradientUnits="userSpaceOnUse" x1="-268.0933" y1="169.5954" x2="-269.094" y2="169.6282" gradientTransform="matrix(15.91 0 0 2.8828 4302.3511 -448.0562)">
				<stop  offset="0" style="stop-color:#F5F6F8"/>
				<stop  offset="1" style="stop-color:#DFE3E8"/>
			</linearGradient>
			<path id="path-7" class="st3" d="M37,41.4l-0.7-0.1c-0.5,0-1.1-0.1-1.8-0.2c-0.7-0.1-1.6-0.2-2.5-0.3c-0.4-0.1-0.9-0.2-1.3-0.3
				s-0.9-0.3-1.3-0.5l-0.8-0.3c-0.3-0.1-0.6-0.1-0.9-0.2c-0.5-0.1-1.1-0.1-1.6-0.1c-1.6,0.1-3.1,0.7-4.4,1.6
				c-0.2,0.1-0.4,0.3-0.6,0.5l0.7-0.1c0.4-0.1,1.1-0.2,1.8-0.2c0.8-0.1,1.6-0.1,2.5-0.1l0.7,0.1l0.7,0.1l0.6,0.2l0.7,0.2
				c0.3,0.1,0.5,0.2,0.8,0.3s0.5,0.2,0.8,0.2c0.5,0.1,1,0.2,1.5,0.2c0.9,0,1.8,0,2.7-0.2c0.6-0.1,1.2-0.3,1.8-0.5
				C36.6,41.6,36.8,41.5,37,41.4z"/>
		</g>
	</g>
</g>
</svg>
