<?xml version="1.0" encoding="utf-8"?>
<!-- Generator: Adobe Illustrator 23.0.3, SVG Export Plug-In . SVG Version: 6.00 Build 0)  -->
<svg version="1.1" id="Layer_1" xmlns="http://www.w3.org/2000/svg" xmlns:xlink="http://www.w3.org/1999/xlink" x="0px" y="0px"
	 viewBox="0 0 45.4 45.4" style="enable-background:new 0 0 45.4 45.4;" xml:space="preserve">
<style type="text/css">
	.st0{opacity:0.9;fill:#3083DC;enable-background:new    ;}
	.st1{fill:url(#path-2_1_);}
	.st2{fill:url(#SVGID_1_);}
</style>
<title>11d</title>
<desc>Created with Sketch.</desc>
<g id="Page-1">
	<g id="Mobile" transform="translate(-292.000000, -8.000000)">
		<g transform="translate(292.000000, 7.000000)">
			<path id="Path" class="st0" d="M18.6,30.5l-4.2,6c-0.2,0.3-0.2,0.7-0.1,1c0.2,0.3,0.5,0.5,0.8,0.5l0,0c0.3,0,0.6,0.2,0.8,0.5
				s0.2,0.7,0,0.9L13.7,43c-0.1,0.1-0.1,0.3,0,0.3s0.3,0.1,0.3,0l7.2-6.4c0.3-0.2,0.4-0.6,0.3-0.9c-0.1-0.3-0.4-0.6-0.7-0.7l0,0
				c-0.3-0.1-0.6-0.3-0.7-0.5c-0.1-0.3-0.1-0.6,0.1-0.9l1.5-2.4c0.2-0.3,0.2-0.6,0-0.9s-0.5-0.5-0.8-0.5h-1.5
				C19.1,30.1,18.8,30.2,18.6,30.5L18.6,30.5z"/>
			
				<linearGradient id="path-2_1_" gradientUnits="userSpaceOnUse" x1="-278.9532" y1="20.2528" x2="-279.9532" y2="20.7645" gradientTransform="matrix(39.4653 0 0 28.2314 11051.8916 -558.6976)">
				<stop  offset="0" style="stop-color:#F5F6F8"/>
				<stop  offset="1" style="stop-color:#DFE3E8"/>
			</linearGradient>
			<path id="path-2" class="st1" d="M42.2,23.4c0,5.5-4.4,9.9-9.9,10H12.6c-4.9,0-9-3.6-9.7-8.4S5,15.6,9.7,14.2
				c0.5-5.1,4.7-8.9,9.8-9c4.9-0.1,9,3.4,9.8,8.2h3.1C37.8,13.5,42.2,17.9,42.2,23.4z"/>
			
				<linearGradient id="SVGID_1_" gradientUnits="userSpaceOnUse" x1="-275.2552" y1="31.291" x2="-274.6496" y2="30.8588" gradientTransform="matrix(24.4202 0 0 17.4207 6731.8467 -515.2691)">
				<stop  offset="1.000000e-02" style="stop-color:#FFFFFF;stop-opacity:0.7"/>
				<stop  offset="1" style="stop-color:#FFFFFF"/>
			</linearGradient>
			<path class="st2" d="M29.9,27.4c0,3.4-2.7,6.1-6.1,6.2H11.6c-1.6,0-3.2-0.6-4.3-1.8c-1.1-1.1-1.8-2.7-1.8-4.3
				c0-1.6,0.6-3.2,1.8-4.3C8,22.5,8.9,22,9.8,21.7c0.3-3.1,2.9-5.5,6.1-5.5c3,0,5.6,2.1,6,5.1h1.8C27.1,21.3,29.9,24,29.9,27.4
				L29.9,27.4z"/>
		</g>
	</g>
</g>
</svg>
