<?xml version="1.0" encoding="utf-8"?>
<!-- Generator: Adobe Illustrator 23.0.3, SVG Export Plug-In . SVG Version: 6.00 Build 0)  -->
<svg version="1.1" id="Layer_1" xmlns="http://www.w3.org/2000/svg" xmlns:xlink="http://www.w3.org/1999/xlink" x="0px" y="0px"
	 viewBox="0 0 45.4 45.4" style="enable-background:new 0 0 45.4 45.4;" xml:space="preserve">
<style type="text/css">
	.st0{fill:url(#path-2_1_);}
	.st1{fill:url(#Path_1_);}
	.st2{fill:url(#path-5_1_);}
	.st3{fill:url(#path-7_1_);}
	.st4{fill:url(#path-9_1_);}
</style>
<title>13d</title>
<desc>Created with Sketch.</desc>
<g id="Page-1">
	<g id="Mobile" transform="translate(-278.000000, -9.000000)">
		<g transform="translate(278.000000, 9.000000)">
			
				<linearGradient id="path-2_1_" gradientUnits="userSpaceOnUse" x1="-278.9596" y1="19.1565" x2="-279.9596" y2="19.6675" gradientTransform="matrix(39.4955 0 0 28.2317 11060.75 -529.9571)">
				<stop  offset="0" style="stop-color:#F5F6F8"/>
				<stop  offset="1" style="stop-color:#DFE3E8"/>
			</linearGradient>
			<path id="path-2" class="st0" d="M42.4,21.2c0,5.5-4.4,9.9-9.9,10H12.8c-4.9,0-9-3.5-9.8-8.4S5.2,13.4,9.9,12
				c0.5-5.1,4.7-9,9.8-9c4.9-0.1,9,3.4,9.8,8.2h3.1C38,11.3,42.4,15.7,42.4,21.2L42.4,21.2z"/>
			
				<linearGradient id="Path_1_" gradientUnits="userSpaceOnUse" x1="-275.3115" y1="30.0368" x2="-274.7089" y2="29.6075" gradientTransform="matrix(24.5409 0 0 17.4823 6766.6172 -497.5186)">
				<stop  offset="1.000000e-02" style="stop-color:#FFFFFF;stop-opacity:0.7"/>
				<stop  offset="1" style="stop-color:#FFFFFF"/>
			</linearGradient>
			<path id="Path" class="st1" d="M30.1,25.2c0,3.4-2.7,6.1-6.1,6.2H11.8c-3.1,0.1-5.7-2.1-6.2-5.2S7,20.3,10,19.4
				c0.3-3.1,2.9-5.5,6.1-5.5c3,0,5.5,2.1,6,5.1H24c1.6,0,3.2,0.7,4.4,1.8C29.5,22,30.1,23.6,30.1,25.2z"/>
			
				<linearGradient id="path-5_1_" gradientUnits="userSpaceOnUse" x1="-176.4641" y1="182.4888" x2="-177.4641" y2="183.4888" gradientTransform="matrix(2.64 0 0 2.64 486.7848 -442.01)">
				<stop  offset="0" style="stop-color:#F5F6F8"/>
				<stop  offset="1" style="stop-color:#DFE3E8"/>
			</linearGradient>
			<circle id="path-5" class="st2" cx="19.6" cy="41.1" r="1.3"/>
			
				<linearGradient id="path-7_1_" gradientUnits="userSpaceOnUse" x1="-208.7733" y1="129.4052" x2="-209.7733" y2="130.4052" gradientTransform="matrix(3.74 0 0 3.74 809.7768 -447.56)">
				<stop  offset="0" style="stop-color:#F5F6F8"/>
				<stop  offset="1" style="stop-color:#DFE3E8"/>
			</linearGradient>
			<circle id="path-7" class="st3" cx="27.1" cy="38.3" r="1.9"/>
			
				<linearGradient id="path-9_1_" gradientUnits="userSpaceOnUse" x1="-208.7719" y1="129.4065" x2="-209.7719" y2="130.4065" gradientTransform="matrix(3.74 0 0 3.74 792.9368 -449.4301)">
				<stop  offset="0" style="stop-color:#F5F6F8"/>
				<stop  offset="1" style="stop-color:#DFE3E8"/>
			</linearGradient>
			<circle id="path-9" class="st4" cx="10.3" cy="36.4" r="1.9"/>
		</g>
	</g>
</g>
</svg>
